<svg width="32" height="32" viewBox="0 0 32 32" fill="none" xmlns="http://www.w3.org/2000/svg">
  <defs>
    <linearGradient id="g" x1="0" y1="0" x2="32" y2="32" gradientUnits="userSpaceOnUse">
      <stop stop-color="#007cf0"/>
      <stop offset="0.5" stop-color="#7928ca"/>
      <stop offset="1" stop-color="#ff0080"/>
    </linearGradient>
  </defs>
  <rect width="32" height="32" rx="7" fill="#171717"/>
  <path d="M10 7.5h7.2L23 13.3V23a1.5 1.5 0 0 1-1.5 1.5h-11A1.5 1.5 0 0 1 9 23V9A1.5 1.5 0 0 1 10 7.5Z" fill="#fff"/>
  <path d="M17 7.6V12a1 1 0 0 0 1 1h4.3" stroke="#171717" stroke-width="1.3" stroke-linejoin="round"/>
  <rect x="11.5" y="15.5" width="9" height="1.6" rx="0.8" fill="url(#g)"/>
  <rect x="11.5" y="18.6" width="9" height="1.6" rx="0.8" fill="#a1a1a1"/>
  <rect x="11.5" y="21.7" width="5.5" height="1.6" rx="0.8" fill="#a1a1a1"/>
</svg>
